<svg width="278" height="414" viewBox="0 0 278 414" fill="none" xmlns="http://www.w3.org/2000/svg">
<path fill-rule="evenodd" clip-rule="evenodd" d="M39.0481 347.793C44.0041 341.411 50.1992 338.929 57.6332 340.347C46.4821 346.728 49.6682 352.578 60.2883 356.301C79.9354 363.214 126.133 364.809 153.214 358.96C161.179 356.832 182.419 351.514 169.675 340.347C174.985 340.347 178.702 341.411 182.419 344.601C184.012 331.307 181.889 319.607 175.517 308.972C172.862 338.752 153.745 350.983 126.133 354.174C129.319 339.816 137.815 326.521 152.152 314.29C138.346 319.607 129.319 330.244 121.354 342.475C122.416 319.076 135.691 302.59 166.489 295.145C144.187 263.769 97.9898 261.642 67.1916 280.786C81.5287 255.792 103.299 241.433 137.815 243.029C265.787 256.323 249.857 460 119.23 460C17.2768 460 -51.2225 337.688 49.1373 280.786C38.5172 297.272 30.021 332.903 39.0481 347.793ZM53.9165 318.012C53.9165 311.099 59.7576 305.249 66.6607 305.249C74.0947 305.249 79.4043 311.099 79.4043 318.012C79.4043 320.671 78.8738 323.329 77.2808 325.456L94.2727 357.364L73.5634 354.174L65.5983 330.774C59.2262 330.243 53.9165 324.393 53.9165 318.012ZM88.9626 314.29C88.9626 314.29 118.168 321.734 117.106 353.642C94.2729 349.919 98.5207 326.521 88.9626 314.29ZM165.427 371.723C162.241 383.955 149.497 399.908 137.815 410.012C163.303 394.058 170.206 374.382 169.675 365.873C150.559 375.977 112.327 373.85 112.327 373.85C127.726 377.041 147.904 377.573 165.427 371.723ZM137.815 201.55C99.5824 206.336 71.4396 228.139 53.9165 270.151C35.8623 276 18.87 291.954 6.65695 308.972C32.1452 206.868 116.575 130.821 278 123.908C278 184 228.085 194.637 137.815 201.55ZM236.051 151.03C187.198 169.642 156.4 172.301 156.4 172.301C189.322 181.342 236.051 151.03 236.051 151.03ZM88.4317 176.024C31.6143 113.804 107.017 59.0289 116.044 0C202.597 110.613 88.4317 176.024 88.4317 176.024ZM112.858 47.3303C116.044 108.486 94.2727 113.272 99.5827 132.417C103.3 131.353 124.009 86.6829 112.858 47.3303Z" fill="#023535"/>
</svg>
