<svg width="164" height="164" viewBox="0 0 164 164" fill="none" xmlns="http://www.w3.org/2000/svg">
<circle cx="82" cy="82" r="82" fill="#023535"/>
<path fill-rule="evenodd" clip-rule="evenodd" d="M85.8105 12L83.8747 26.1733L89.9046 26.9969C90.3983 27.0643 90.9295 27.1198 91.4983 27.1632C92.0847 27.2091 92.668 27.2119 93.2483 27.1715C93.8308 27.1143 94.3784 26.9839 94.8911 26.7804C95.4061 26.5601 95.828 26.233 96.1566 25.7992C96.5029 25.3678 96.7253 24.7913 96.8239 24.0696C96.9087 23.4487 96.8533 22.8684 96.6576 22.3288C96.4619 21.7891 96.0408 21.3213 95.3945 20.9253C94.7504 20.5125 93.796 20.2027 92.5311 19.9957L92.5414 19.9202C93.6591 20.0215 94.5283 19.9693 95.1491 19.7635C95.7722 19.5408 96.2204 19.2174 96.4939 18.7931C96.785 18.3713 96.9672 17.8918 97.0406 17.3548C97.1368 16.6499 97.0837 16.0528 96.8811 15.5636C96.6808 15.0575 96.3875 14.6413 96.001 14.315C95.6168 13.9719 95.1683 13.7055 94.6554 13.5158C94.1624 13.3117 93.6538 13.1567 93.1294 13.0509C92.6227 12.9475 92.1489 12.8657 91.7082 12.8055L85.8105 12ZM89.975 24.9037L86.8278 24.4738L87.4089 20.2193L90.3974 20.6275C91.1202 20.7262 91.7757 20.8585 92.3637 21.0243C92.9693 21.1925 93.4278 21.4517 93.7392 21.8019C94.0682 22.1546 94.1868 22.6666 94.0951 23.3379C94.008 23.9757 93.7675 24.4215 93.3736 24.6755C92.9798 24.9294 92.4862 25.0586 91.8929 25.063C91.3019 25.0507 90.6626 24.9976 89.975 24.9037ZM90.5862 18.653L87.6506 18.2521L88.1698 14.4507L91.1054 14.8516C91.7225 14.9359 92.2909 15.0478 92.8107 15.1871C93.3305 15.3265 93.7307 15.5521 94.0114 15.864C94.3097 16.1783 94.4164 16.6459 94.3316 17.2669C94.2514 17.8543 94.0255 18.2594 93.6538 18.4822C93.302 18.6906 92.8571 18.7922 92.319 18.7871C91.7809 18.782 91.2033 18.7373 90.5862 18.653ZM108.831 33.1224L109.622 31.2238L102.423 28.1385L104.005 24.4203L109.385 26.7145L110.255 24.7367L104.876 22.4425L106.3 18.9617L113.341 21.9679L114.211 19.911L104.243 15.639L98.626 28.7714L108.831 33.1224ZM116.109 38.5811C116.215 38.6865 116.32 38.7656 116.426 38.8184C117.428 39.6622 118.456 40.1896 119.511 40.4006C120.566 40.6116 121.568 40.5852 122.517 40.3215C123.467 40.0578 124.337 39.5568 125.128 38.8184L122.517 36.7615C121.99 37.2889 121.41 37.579 120.777 37.6317C120.144 37.7372 119.538 37.6845 118.957 37.4735C118.483 37.2626 118.034 37.0252 117.612 36.7615C116.61 35.8649 116.083 34.8629 116.03 33.7553C115.978 32.595 116.479 31.382 117.533 30.1162C118.483 28.9032 119.511 28.2176 120.619 28.0594C121.726 27.9011 122.807 28.2176 123.862 29.0087C124.231 29.3251 124.548 29.6943 124.812 30.1162C125.128 30.5909 125.313 31.1447 125.365 31.7776C125.471 32.3577 125.339 32.9906 124.97 33.6762L127.58 35.7331C128.055 34.8365 128.319 33.8872 128.372 32.8851C128.477 31.9358 128.292 30.9865 127.818 30.0371C127.396 29.0878 126.684 28.1912 125.682 27.3474C125.576 27.2946 125.497 27.2419 125.444 27.1892C125.339 27.0837 125.233 27.0046 125.128 26.9518C124.073 26.0552 122.939 25.5015 121.726 25.2905C120.513 25.0795 119.327 25.2114 118.166 25.6861C116.953 26.1607 115.846 27.0046 114.844 28.2176C113.842 29.4834 113.261 30.7491 113.103 32.0149C112.892 33.2279 113.05 34.3882 113.578 35.4958C114.053 36.6033 114.817 37.579 115.872 38.4228C115.978 38.4756 116.057 38.5283 116.109 38.5811ZM132.881 58.4378L133.751 61.6813L143.956 58.6751L134.463 64.1337L135.729 68.4848L146.567 68.2475L136.441 70.9372L137.39 74.1808L151.076 70.2253L149.652 65.3204L137.39 65.716L147.991 59.4662L146.567 54.5614L132.881 58.4378ZM137.153 88.3416H139.21L139.368 80.5096L143.482 80.5887L143.323 86.4429H145.459L145.538 80.5887L149.336 80.6678L149.178 88.2624L151.393 88.3416L151.63 77.5034L137.39 77.2661L137.153 88.3416ZM135.491 97.3601L134.147 100.366L139.922 102.819L137.548 108.436L131.773 105.983L130.508 108.989L143.64 114.527L144.906 111.6L139.368 109.227L141.741 103.61L147.279 105.983L148.545 102.977L135.491 97.3601ZM118.245 124.416L115.397 126.235L121.093 135.175L113.182 127.58L109.385 129.954L112.629 140.317L107.17 131.299L104.322 133.039L111.837 145.143L116.268 142.453L112.549 130.745L121.331 139.289L125.761 136.599L118.245 124.416ZM90.5567 136.757L91.1105 138.814L98.7051 136.836L99.7335 140.792L94.1167 142.216L94.5913 144.273L100.287 142.849L101.237 146.409L93.8793 148.386L94.4331 150.522L104.876 147.754L101.316 133.988L90.5567 136.757ZM59.3872 132.96L56.5392 131.219L53.3748 134.067L49.1819 131.536L50.2104 127.501L47.2833 125.761L43.9606 140.396L48.2326 142.849L59.3872 132.96ZM46.4131 140.475L48.1535 133.276L48.7864 133.593L52.5046 135.808L46.9668 140.792L46.4131 140.475ZM30.5119 125.84L28.9296 127.422L37.2362 135.65L38.8185 134.067L35.8123 131.14L44.2771 122.596L41.9829 120.302L33.5181 128.846L30.5119 125.84ZM37.3945 115.635L35.7331 112.787L30.3536 115.951L27.3474 110.651L32.7269 107.565L31.0656 104.717L18.7244 111.837L20.3857 114.685L25.607 111.679L28.6132 116.9L23.3919 119.907L25.0532 122.755L37.3945 115.635ZM28.7714 97.993L27.9803 94.8286L23.0755 96.1735L12.9493 93.7211L13.8195 97.1228L20.623 98.3886L15.3226 102.898L16.272 106.3L23.9457 99.2588L28.7714 97.993ZM27.1892 71.4119L25.0532 71.2537L24.4203 79.0856L20.3066 78.7692L20.8604 72.915L18.7244 72.7568L18.2497 78.5319L14.4524 78.2154L15.1644 70.6208L12.9493 70.4626L12 81.2216L26.1608 82.4874L27.1892 71.4119ZM27.2683 69.6715L28.455 66.2697L24.5786 61.1275L30.8283 59.7827L32.0941 56.3018L23.3128 58.5169L18.5662 51.8716L17.3004 55.3525L20.623 59.7036L15.2435 60.8902L13.9778 64.3711L21.8888 62.3142L27.2683 69.6715ZM33.2807 54.4823L35.1794 51.8716L31.0656 49.0236L32.4896 46.9668L32.8852 46.413C33.7818 45.1472 34.1509 43.9342 33.9927 42.7739C33.8872 41.5609 33.2544 40.5588 32.0941 39.7677C30.7756 38.8184 29.5362 38.4756 28.3759 38.7393C27.2156 39.003 26.1871 39.7941 25.2906 41.1126L24.895 41.6664L21.6515 46.3339L33.2807 54.4823ZM26.4772 43.0904L26.8728 42.5366C27.4002 41.7982 28.0067 41.3236 28.6923 41.1126C29.3252 40.9016 30.0108 41.0599 30.7492 41.5873C31.4876 42.1147 31.8567 42.7212 31.8567 43.4068C31.9095 44.1452 31.6721 44.8835 31.1447 45.6219L30.7492 46.1757L29.167 48.3908L24.895 45.3846L26.4772 43.0904ZM49.6566 36.366L48.3117 34.8629L42.2993 40.005L39.6887 36.9197L44.1189 33.0433L42.6949 31.4611L38.2647 35.3375L35.8123 32.4895L41.5873 27.5056L40.0842 25.7652L31.9358 32.8851L41.2709 43.6441L49.6566 36.366ZM51.7926 34.8629L54.7197 33.4389L52.109 28.1385C52.5309 27.9275 52.9265 27.7166 53.2957 27.5056C53.6121 27.4001 53.9022 27.2946 54.1659 27.1892C54.7988 26.9254 55.3262 26.82 55.7481 26.8727C56.17 26.9254 56.5128 27.1364 56.7765 27.5056C57.0402 27.8748 57.3303 28.3758 57.6467 29.0087C58.0159 29.7471 58.4379 30.2481 58.9125 30.5118C59.3344 30.7755 59.7827 30.881 60.2574 30.8282C60.6266 30.8282 60.9694 30.6964 61.2858 30.4327C61.5495 30.3799 61.7869 30.2745 61.9978 30.1162C62.367 29.7998 62.6307 29.457 62.7889 29.0878L62.156 27.7429C61.9451 27.9539 61.7605 28.1121 61.6023 28.2176L61.5232 28.0594C61.4704 28.1648 61.3913 28.244 61.2858 28.2967H61.2067C60.943 28.2967 60.7057 28.1648 60.4947 27.9011C60.2838 27.6374 60.0728 27.321 59.8618 26.9518C59.5981 26.5826 59.3344 26.2398 59.0707 25.9234C58.807 25.6597 58.4642 25.4751 58.0423 25.3696C57.6731 25.2641 57.2248 25.3432 56.6974 25.6069C57.6468 25.1323 58.2269 24.4467 58.4379 23.5501C58.5961 22.6535 58.4115 21.7042 57.8841 20.7021C57.1985 19.2781 56.2755 18.5134 55.1152 18.4079C53.9022 18.3024 52.4782 18.6716 50.8432 19.5154L45.5428 22.1261L51.7926 34.8629ZM55.3525 24.3412C54.9306 24.6576 54.3505 25.0004 53.6121 25.3696L53.04 25.6479L50.685 26.7936L48.7864 22.8381L51.0806 21.7305L51.1597 21.6865C51.329 21.6124 51.4929 21.5401 51.6516 21.4702C52.2839 21.1914 52.8319 20.9498 53.2957 20.7812C53.8758 20.5702 54.3769 20.5439 54.7988 20.7021C55.2207 20.8076 55.5899 21.2031 55.9063 21.8887C56.2228 22.4689 56.3282 22.9436 56.2228 23.3127C56.1173 23.6819 55.8272 24.0247 55.3525 24.3412ZM52.5 24.5228L52.5923 24.7151C52.5452 24.6171 52.5392 24.6026 52.5496 24.6221C52.6282 24.7789 52.6347 24.7911 52.6183 24.758C52.602 24.7249 52.5628 24.6466 52.5496 24.6221L52.5 24.5228ZM52.5 24.5228C52.3164 24.1556 52.3003 24.1197 52.2692 24.0501C52.2467 23.9998 52.2164 23.9319 52.109 23.7083L52.5 24.5228ZM73.2315 14.7688L72.7569 12.5537L61.3649 15.0061L61.8396 17.2212L65.9534 16.351L68.4849 28.0594L71.6493 27.3474L69.1178 15.639L73.2315 14.7688ZM126.625 49.7157C125.406 47.6039 125.053 45.6548 125.565 43.8685C126.091 42.0737 127.344 40.6052 129.322 39.4632C130.626 38.7103 131.893 38.2995 133.124 38.231C134.369 38.154 135.533 38.4447 136.616 39.1028C137.723 39.7681 138.693 40.8228 139.527 42.2669C140.755 44.3942 141.102 46.3475 140.566 48.1268C140.054 49.9131 138.816 51.3731 136.853 52.5067C135.578 53.2427 134.306 53.6456 133.037 53.7156C131.784 53.777 130.608 53.4829 129.51 52.8331C128.412 52.1834 127.45 51.1442 126.625 49.7157ZM128.766 48.4488C129.313 49.396 129.949 50.0744 130.674 50.4841C131.413 50.8852 132.195 51.055 133.019 50.9933C133.858 50.9232 134.687 50.6512 135.508 50.1775C136.343 49.6953 136.993 49.1128 137.459 48.43C137.939 47.7388 138.183 46.9768 138.19 46.1442C138.213 45.3031 137.951 44.409 137.404 43.4618C136.615 42.0953 135.618 41.2834 134.415 41.0259C133.211 40.7684 131.957 41.0162 130.653 41.7691C129.847 42.2344 129.2 42.8049 128.711 43.4806C128.245 44.1634 128.001 44.9253 127.979 45.7664C127.957 46.6074 128.219 47.5016 128.766 48.4488ZM129.331 113.762C127.486 113.956 125.811 115.012 124.307 116.931C123.289 118.229 122.682 119.508 122.487 120.768C122.293 122.028 122.456 123.227 122.978 124.365C123.513 125.514 124.358 126.541 125.513 127.447C127.292 128.842 129.104 129.442 130.949 129.249C132.796 129.079 134.478 128.028 135.994 126.095C137.023 124.783 137.64 123.49 137.846 122.216C138.054 120.967 137.892 119.78 137.359 118.655C136.839 117.541 135.988 116.521 134.807 115.595C133.015 114.19 131.19 113.579 129.331 113.762ZM125.096 120.968C125.207 120.143 125.599 119.3 126.274 118.44C126.949 117.579 127.681 117.002 128.468 116.708C129.256 116.414 130.052 116.355 130.858 116.531C131.665 116.731 132.434 117.118 133.164 117.69C134.345 118.617 135.04 119.685 135.248 120.896C135.455 122.107 135.073 123.334 134.099 124.575C133.424 125.436 132.693 126.013 131.905 126.307C131.131 126.611 130.334 126.67 129.516 126.484C128.71 126.308 127.929 125.924 127.173 125.33C126.429 124.748 125.87 124.081 125.494 123.33C125.131 122.59 124.998 121.803 125.096 120.968ZM81 136.8C83.4286 136.8 85.2857 137.473 86.5714 138.819C87.8571 140.181 88.5 142.013 88.5 144.313C88.5 145.829 88.2232 147.141 87.6696 148.248C87.1161 149.372 86.2857 150.241 85.1786 150.854C84.0536 151.485 82.6607 151.8 81 151.8C78.5536 151.8 76.6964 151.118 75.4286 149.756C74.1429 148.41 73.5 146.595 73.5 144.313C73.5 142.83 73.7857 141.519 74.3571 140.377C74.9286 139.253 75.7679 138.376 76.875 137.745C77.9821 137.115 79.3571 136.8 81 136.8ZM81.0268 139.304C79.9375 139.304 79.0357 139.517 78.3214 139.943C77.6071 140.386 77.0714 140.982 76.7143 141.732C76.3571 142.498 76.1786 143.359 76.1786 144.313C76.1786 145.284 76.3571 146.144 76.7143 146.893C77.0714 147.66 77.6071 148.256 78.3214 148.682C79.0357 149.125 79.9375 149.347 81.0268 149.347C82.5982 149.347 83.7946 148.887 84.6161 147.967C85.4375 147.047 85.8482 145.829 85.8482 144.313C85.8482 143.376 85.6786 142.524 85.3393 141.757C84.9821 141.008 84.4464 140.411 83.7321 139.968C83.0179 139.526 82.1161 139.304 81.0268 139.304ZM71.145 136.435L68.48 135.62L67.017 140.4L63.7726 139.407C62.186 138.922 60.8144 138.918 59.6578 139.396C58.4838 139.868 57.6915 140.775 57.2808 142.118C56.8108 143.654 56.9128 144.942 57.5869 145.979C58.261 147.017 59.4175 147.786 61.0564 148.287L64.2993 149.279L64.6915 149.399L66.9668 150.095L71.145 136.435ZM64.9156 147.266L66.4601 142.219L63.5821 141.339C62.6406 141.051 61.8179 141.029 61.1139 141.274C60.4099 141.518 59.9293 142.061 59.672 142.902C59.4098 143.76 59.5045 144.478 59.9562 145.059C60.3854 145.65 61.0795 146.092 62.0385 146.386L64.9156 147.266Z" fill="white"/>
<path d="M54.6078 97H49.0078V74.48H54.6078V97ZM53.8478 74.48H58.5278C61.0878 74.48 63.1011 75.1467 64.5678 76.48C66.0611 77.7867 66.8078 79.76 66.8078 82.4C66.8078 84.64 66.0478 86.4133 64.5278 87.72C63.0078 89 61.0078 89.64 58.5278 89.64H53.8878V85.72H57.6878C58.8078 85.72 59.7678 85.44 60.5678 84.88C61.3678 84.2933 61.7678 83.44 61.7678 82.32C61.7678 81.1733 61.3678 80.3333 60.5678 79.8C59.7945 79.24 58.8345 78.96 57.6878 78.96H53.8478V74.48ZM70.1016 97V74.48H79.2616C81.2349 74.48 82.9282 74.7067 84.3416 75.16C85.7549 75.6133 86.8482 76.3333 87.6216 77.32C88.3949 78.3067 88.7816 79.6267 88.7816 81.28C88.7816 82.64 88.5816 83.8 88.1816 84.76C87.7816 85.6933 87.2082 86.4133 86.4616 86.92C85.7149 87.4267 84.8349 87.68 83.8216 87.68C84.4616 87.68 84.9549 87.8133 85.3016 88.08C85.6749 88.32 85.9549 88.6533 86.1416 89.08C86.3549 89.48 86.5149 89.9067 86.6216 90.36C86.7282 90.8133 86.8349 91.2533 86.9416 91.68C87.0482 92.1067 87.1949 92.4667 87.3816 92.76C87.5949 93.0533 87.9016 93.2267 88.3016 93.28C88.7016 93.3333 89.2349 93.2267 89.9016 92.96V96C89.1549 96.64 88.3282 97.0533 87.4216 97.24C86.5149 97.4533 85.6482 97.4 84.8216 97.08C84.0216 96.7867 83.3549 96.2133 82.8216 95.36C82.2882 94.48 82.0216 93.2933 82.0216 91.8C82.0216 91.2933 81.9949 90.8267 81.9416 90.4C81.8882 89.9467 81.7549 89.56 81.5416 89.24C81.3282 88.8933 80.9949 88.6133 80.5416 88.4C80.0882 88.1867 79.4749 88.0533 78.7016 88C77.9282 87.9467 76.9282 87.9733 75.7016 88.08V97H70.1016ZM75.7016 84.16H78.5016C79.7282 84.16 80.7282 84.1467 81.5016 84.12C82.2749 84.0933 82.8482 83.92 83.2216 83.6C83.6216 83.2533 83.8216 82.64 83.8216 81.76C83.8216 80.7733 83.5816 80.0933 83.1016 79.72C82.6482 79.32 81.9682 79.0933 81.0616 79.04C80.1816 78.9867 79.0882 78.96 77.7816 78.96H75.7016V84.16ZM103.307 97.56C99.5732 97.56 96.7199 96.5067 94.7466 94.4C92.7732 92.2667 91.7866 89.4 91.7866 85.8C91.7866 83.4267 92.2132 81.3733 93.0666 79.64C93.9199 77.88 95.1999 76.52 96.9066 75.56C98.6132 74.5733 100.747 74.08 103.307 74.08C107.04 74.08 109.88 75.1467 111.827 77.28C113.773 79.3867 114.747 82.2267 114.747 85.8C114.747 88.12 114.307 90.1733 113.427 91.96C112.573 93.72 111.293 95.0933 109.587 96.08C107.907 97.0667 105.813 97.56 103.307 97.56ZM103.227 92.16C104.587 92.16 105.707 91.88 106.587 91.32C107.493 90.7333 108.16 89.96 108.587 89C109.04 88.0133 109.267 86.9467 109.267 85.8C109.267 84.6267 109.04 83.5467 108.587 82.56C108.16 81.5733 107.493 80.7867 106.587 80.2C105.707 79.6133 104.587 79.32 103.227 79.32C101.28 79.32 99.7866 79.9333 98.7466 81.16C97.7332 82.3867 97.2266 83.9333 97.2266 85.8C97.2266 86.92 97.4399 87.9733 97.8666 88.96C98.3199 89.92 98.9866 90.6933 99.8666 91.28C100.747 91.8667 101.867 92.16 103.227 92.16Z" fill="white"/>
</svg>
