<svg width="251" height="75" viewBox="0 0 251 75" fill="none" xmlns="http://www.w3.org/2000/svg">
<path fill-rule="evenodd" clip-rule="evenodd" d="M4.85677 38.0576H0.636982V22.2138H6.36943L8.35988 30.0959C8.41296 30.202 8.46609 30.4674 8.51917 30.892C8.62533 31.2636 8.75802 31.7944 8.91726 32.4844C8.97034 31.9536 9.0499 31.4759 9.15606 31.0512C9.20913 30.6266 9.26227 30.3348 9.31535 30.1756L11.465 22.2138H17.1178V38.0576H12.8982V30.2551C12.8982 29.7773 12.9247 29.3262 12.9778 28.9016C12.9778 28.4239 12.9778 27.9461 12.9778 27.4684C12.8185 28.3177 12.6062 29.2201 12.3408 30.1756V30.3347L10.5096 38.0576H7.2453L5.41405 30.4939C5.36098 30.1224 5.28132 29.7243 5.17516 29.2997C5.069 28.822 4.96293 28.2115 4.85677 27.4684C4.85677 28.1584 4.85677 28.7423 4.85677 29.22C4.85677 29.6977 4.85677 30.0958 4.85677 30.4142V38.0576ZM136.067 65.8442V42.5958H144.984C147.001 42.5958 148.594 42.7285 149.761 42.9939C150.876 43.2062 151.831 43.6043 152.628 44.1882C153.636 44.8782 154.379 45.754 154.857 46.8156C155.388 47.9303 155.653 49.2042 155.653 50.6373C155.653 53.2382 154.936 55.2286 153.503 56.6086C152.017 57.9887 149.92 58.6786 147.213 58.6786H143.073V65.8442H136.067ZM143.073 53.0258H145.303C146.736 53.0258 147.718 52.8401 148.249 52.4686C148.726 52.1501 148.965 51.5396 148.965 50.6373C148.965 49.735 148.726 49.1245 148.249 48.8061C147.771 48.4345 146.789 48.2488 145.303 48.2488H143.073V53.0258ZM153.822 65.8442L161.465 42.5958H168.551L176.274 65.8442H169.268L168.471 62.7392H161.545L160.669 65.8442H153.822ZM162.898 57.8824H167.277L165.048 49.8411L162.898 57.8824ZM181.051 65.8442V48.7264H174.761V42.5958H194.347V48.7264H188.057V65.8442H181.051ZM195.86 65.8442V42.5958H202.866V50.4781H209.315V42.5958H216.322V65.8442H209.315V56.8475H202.866V65.8442H195.86ZM225.398 65.8442V57.2456L217.357 42.5958H225.159L228.901 50.5576L232.643 42.5958H240.207L232.405 57.2456V65.8442H225.398ZM0 65.8442V42.5958H7.00641V50.4781H13.535V42.5958H20.5415V65.8442H13.535V56.8475H7.00641V65.8442H0ZM23.7262 54.2201C23.7262 50.4515 24.7347 47.4792 26.7517 45.3029C28.7687 43.1267 31.5287 42.0385 35.0319 42.0385C38.5351 42.0385 41.2952 43.1267 43.3121 45.3029C45.3291 47.4792 46.3377 50.4515 46.3377 54.2201C46.3377 57.9887 45.3291 60.9877 43.3121 63.217C41.2952 65.3932 38.5351 66.4812 35.0319 66.4812C31.5287 66.4812 28.7687 65.3932 26.7517 63.217C24.7347 60.9877 23.7262 57.9887 23.7262 54.2201ZM30.8122 54.2201C30.8122 56.4494 31.1571 58.0682 31.8472 59.0767C32.5372 60.1383 33.5987 60.669 35.0319 60.669C36.5181 60.669 37.6063 60.1383 38.2963 59.0767C38.9863 58.0682 39.3312 56.4494 39.3312 54.2201C39.3312 52.0439 38.9863 50.4249 38.2963 49.3633C37.6063 48.3548 36.5181 47.8507 35.0319 47.8507C33.5987 47.8507 32.5372 48.3548 31.8472 49.3633C31.1571 50.4249 30.8122 52.0439 30.8122 54.2201ZM55.8918 65.8442H49.602V42.5958H58.121L61.1466 54.2201C61.1466 54.3793 61.2262 54.7244 61.3855 55.2552C61.4916 55.839 61.6508 56.6352 61.8631 57.6437C61.9693 56.8475 62.102 56.1574 62.2612 55.5736C62.3674 54.9897 62.4736 54.5386 62.5797 54.2201L65.6051 42.5958H74.1243V65.8442H67.8345L67.9141 54.3793C67.861 53.6893 67.861 53.0258 67.9141 52.3889C67.9141 51.7519 67.9141 51.0618 67.9141 50.3187C67.6487 51.5395 67.3568 52.8665 67.0383 54.2996V54.459L64.3313 65.8442H59.395L56.688 54.6977C56.5818 54.22 56.4491 53.6628 56.2899 53.0258C56.1837 52.3358 56.0245 51.4334 55.8122 50.3187C55.8653 51.3272 55.8918 52.203 55.8918 52.9461C55.8918 53.6362 55.8918 54.1936 55.8918 54.6182V65.8442ZM78.2644 65.8442V42.6755H95.7007V48.1691H85.2708V51.2743H94.1084V56.6086H85.2708V60.1915H96.0988V65.8442H78.2644ZM20.0638 38.1373V22.2138H24.9204V38.1373H20.0638ZM26.9905 33.1214H31.6084C31.7145 33.7052 31.9268 34.1298 32.2452 34.3951C32.5637 34.6605 33.068 34.7932 33.758 34.7932C34.2888 34.7932 34.7134 34.6872 35.0319 34.4748C35.3503 34.2625 35.5097 33.9705 35.5097 33.599C35.5097 33.0151 34.8462 32.564 33.5192 32.2455C33.2538 32.1393 33.068 32.0863 32.9618 32.0863C31.8472 31.7678 30.9714 31.4758 30.3345 31.2104C29.6975 30.9981 29.2463 30.7593 28.9809 30.4939C28.3971 30.0693 27.9725 29.5651 27.7071 28.9813C27.3886 28.3443 27.2294 27.6276 27.2294 26.8314C27.2294 25.2922 27.7867 24.0715 28.9013 23.1691C30.016 22.2668 31.5287 21.8157 33.4395 21.8157C35.2973 21.8157 36.7569 22.2402 37.8185 23.0894C38.9331 23.9387 39.5436 25.1596 39.6497 26.7519H35.1912C35.1381 26.3273 34.9522 25.9823 34.6338 25.7169C34.3153 25.5046 33.8907 25.3985 33.3599 25.3985C32.8291 25.3985 32.4576 25.4779 32.2452 25.6372C31.9798 25.8495 31.8472 26.1415 31.8472 26.5131C31.8472 27.0438 32.4841 27.4685 33.758 27.787C33.8642 27.8401 33.9438 27.8665 33.9969 27.8665C34.2092 27.9196 34.5011 27.9993 34.8727 28.1054C36.5712 28.5831 37.6858 29.0078 38.2166 29.3794C38.8535 29.8571 39.3313 30.3879 39.6497 30.9717C39.9682 31.5556 40.1274 32.2721 40.1274 33.1214C40.1274 34.873 39.5436 36.1999 38.3759 37.1023C37.2612 38.0577 35.6423 38.5354 33.5192 38.5354C31.6084 38.5354 30.0691 38.0577 28.9013 37.1023C27.7867 36.1999 27.1497 34.873 26.9905 33.1214ZM41.8791 33.1214H46.4969C46.603 33.7052 46.8154 34.1298 47.1338 34.3951C47.5054 34.6605 48.0097 34.7932 48.6466 34.7932C49.1774 34.7932 49.602 34.6872 49.9205 34.4748C50.2389 34.2625 50.3982 33.9705 50.3982 33.599C50.3982 33.0151 49.7347 32.564 48.4077 32.2455C48.1423 32.1393 47.9566 32.0863 47.8504 32.0863C46.7358 31.7678 45.8599 31.4758 45.223 31.2104C44.586 30.9981 44.1349 30.7593 43.8695 30.4939C43.2857 30.0693 42.861 29.5651 42.5956 28.9813C42.2771 28.3443 42.1179 27.6276 42.1179 26.8314C42.1179 25.2922 42.6752 24.0715 43.7898 23.1691C44.9045 22.2668 46.4173 21.8157 48.3281 21.8157C50.1859 21.8157 51.672 22.2402 52.7867 23.0894C53.8483 23.9387 54.4587 25.1596 54.6179 26.7519H50.0797C50.0266 26.3273 49.8408 25.9823 49.5224 25.7169C49.2039 25.5046 48.7793 25.3985 48.2485 25.3985C47.7177 25.3985 47.3462 25.4779 47.1338 25.6372C46.8684 25.8495 46.7358 26.1415 46.7358 26.5131C46.7358 27.0438 47.3727 27.4685 48.6466 27.787C48.7528 27.8401 48.8323 27.8665 48.8854 27.8665C49.0977 27.9196 49.3896 27.9993 49.7612 28.1054C51.4597 28.5831 52.5744 29.0078 53.1052 29.3794C53.7421 29.8571 54.2198 30.3879 54.5382 30.9717C54.8567 31.5556 55.016 32.2721 55.016 33.1214C55.016 34.873 54.4321 36.1999 53.2644 37.1023C52.1497 38.0577 50.5308 38.5354 48.4077 38.5354C46.4969 38.5354 44.9576 38.0577 43.7898 37.1023C42.6752 36.1999 42.0383 34.873 41.8791 33.1214ZM57.1657 38.1373V22.2138H61.9427V38.1373H57.1657ZM64.2517 30.1756C64.2517 27.5747 64.9152 25.531 66.2421 24.0448C67.6222 22.5586 69.4799 21.8157 71.8154 21.8157C74.1508 21.8157 76.0086 22.5586 77.3886 24.0448C78.7687 25.531 79.4587 27.5747 79.4587 30.1756C79.4587 32.7764 78.7687 34.8199 77.3886 36.3061C76.0086 37.7923 74.1508 38.5354 71.8154 38.5354C69.4799 38.5354 67.6222 37.7923 66.2421 36.3061C64.9152 34.8199 64.2517 32.7764 64.2517 30.1756ZM68.9492 30.1756C68.9492 31.6618 69.1879 32.7764 69.6656 33.5195C70.1433 34.2095 70.86 34.5545 71.8154 34.5545C72.8239 34.5545 73.5404 34.2095 73.965 33.5195C74.4427 32.8294 74.6816 31.7148 74.6816 30.1756C74.6816 28.6363 74.4427 27.5215 73.965 26.8314C73.5404 26.1414 72.8239 25.7966 71.8154 25.7966C70.86 25.7966 70.1433 26.1414 69.6656 26.8314C69.1879 27.5745 68.9492 28.6894 68.9492 30.1756ZM81.6083 38.1373V22.2138H86.067L90.1275 29.6181C90.2867 29.8304 90.4194 30.1224 90.5256 30.4939C90.6848 30.8655 90.844 31.3166 91.0033 31.8474C90.9502 31.582 90.9237 31.2902 90.9237 30.9717C90.9237 30.6002 90.9237 30.1755 90.9237 29.6978V22.2138H95.3823V38.1373H90.9237L86.7835 30.7328C86.6773 30.5205 86.5446 30.2285 86.3854 29.857C86.2262 29.4323 86.0669 28.9812 85.9077 28.5035C85.9608 28.7689 85.9873 29.0609 85.9873 29.3794C86.0404 29.6978 86.067 30.1224 86.067 30.6531V38.1373H81.6083Z" fill="white"/>
<path fill-rule="evenodd" clip-rule="evenodd" d="M250.079 45.3823C250.079 46.0723 249.92 46.7093 249.602 47.2932C249.23 47.9301 248.752 48.4343 248.169 48.8059C247.532 49.1243 246.868 49.2837 246.178 49.2837C245.435 49.2837 244.772 49.0977 244.188 48.7262C243.551 48.3546 243.073 47.8771 242.755 47.2932C242.383 46.7093 242.197 46.0723 242.197 45.3823C242.197 44.6392 242.383 43.9757 242.755 43.3918C243.126 42.8079 243.604 42.3302 244.188 41.9587C244.825 41.5871 245.488 41.4014 246.178 41.4014C246.868 41.4014 247.532 41.5871 248.169 41.9587C248.752 42.3302 249.23 42.8079 249.602 43.3918C249.92 43.9757 250.079 44.6392 250.079 45.3823ZM249.602 45.3823C249.602 44.7453 249.442 44.1615 249.124 43.6307C248.859 43.0999 248.434 42.7018 247.85 42.4364C247.372 42.118 246.815 41.9587 246.178 41.9587C245.541 41.9587 244.957 42.118 244.427 42.4364C243.896 42.7018 243.498 43.0999 243.232 43.6307C242.914 44.1615 242.755 44.7453 242.755 45.3823C242.755 45.9661 242.914 46.5235 243.232 47.0543C243.551 47.5851 243.949 48.0096 244.427 48.3281C244.957 48.6466 245.541 48.8059 246.178 48.8059C246.762 48.8059 247.319 48.6466 247.85 48.3281C248.434 48.0096 248.859 47.5851 249.124 47.0543C249.442 46.5235 249.602 45.9661 249.602 45.3823ZM248.089 47.6116H247.293L246.178 45.7804H245.302V47.6116H244.586V43.0734H246.258C246.789 43.0734 247.187 43.2061 247.452 43.4715C247.717 43.6838 247.85 44.0023 247.85 44.4269C247.85 44.7984 247.77 45.0904 247.611 45.3028C247.399 45.5151 247.134 45.6478 246.815 45.7008L248.089 47.6116ZM247.293 44.4269C247.293 44.1615 247.187 43.9758 246.974 43.8696C246.815 43.7104 246.603 43.6307 246.337 43.6307H245.382V45.3028H246.337C246.656 45.3028 246.895 45.2231 247.054 45.0639C247.213 44.9046 247.293 44.6923 247.293 44.4269Z" fill="white"/>
<path fill-rule="evenodd" clip-rule="evenodd" d="M105.017 52.0702C105.76 51.1148 106.689 50.7431 107.804 50.9554C106.132 51.9109 106.609 52.7867 108.202 53.344C111.147 54.379 118.074 54.6179 122.135 53.7421C123.329 53.4236 126.514 52.6274 124.603 50.9554C125.399 50.9554 125.956 51.1147 126.514 51.5924C126.753 49.602 126.434 47.8504 125.479 46.2581C125.081 50.7167 122.214 52.5479 118.074 53.0256C118.552 50.8759 119.826 48.8855 121.976 47.0542C119.905 47.8504 118.552 49.4428 117.358 51.274C117.517 47.7708 119.507 45.3026 124.125 44.1879C120.781 39.4905 113.855 39.172 109.237 42.0383C111.386 38.2962 114.651 36.1465 119.826 36.3853C139.014 38.3758 136.625 68.8695 117.039 68.8695C101.753 68.8695 91.4819 50.5574 106.53 42.0383C104.937 44.5064 103.663 49.8409 105.017 52.0702ZM107.246 47.6115C107.246 46.5765 108.122 45.7008 109.157 45.7008C110.272 45.7008 111.068 46.5765 111.068 47.6115C111.068 48.0096 110.988 48.4076 110.749 48.7261L113.297 53.5032L110.192 53.0256L108.998 49.5223C108.042 49.4427 107.246 48.5669 107.246 47.6115ZM112.501 47.0542C112.501 47.0542 116.88 48.1688 116.721 52.9459C113.297 52.3886 113.934 48.8855 112.501 47.0542ZM123.966 55.653C123.488 57.4842 121.577 59.8727 119.826 61.3855C123.647 58.9969 124.683 56.051 124.603 54.7771C121.737 56.2899 116.004 55.9714 116.004 55.9714C118.313 56.4491 121.339 56.5288 123.966 55.653ZM119.826 30.1753C114.093 30.8919 109.874 34.1561 107.246 40.4459C104.539 41.3217 101.991 43.7103 100.16 46.2581C103.982 30.9714 116.641 19.586 140.845 18.551C140.845 27.5478 133.361 29.1403 119.826 30.1753ZM134.555 22.6116C127.23 25.3982 122.612 25.7963 122.612 25.7963C127.549 27.1498 134.555 22.6116 134.555 22.6116ZM112.421 26.3536C103.902 17.0383 115.208 8.83758 116.562 0C129.539 16.5605 112.421 26.3536 112.421 26.3536ZM116.084 7.08611C116.562 16.2422 113.297 16.9587 114.093 19.825C114.651 19.6657 117.756 12.9778 116.084 7.08611Z" fill="#22B2AB"/>
<path fill-rule="evenodd" clip-rule="evenodd" d="M137.66 74.8408L136.227 68.1529H137.5L138.535 73.4873L139.411 68.1529H140.685L139.332 74.8408H137.66ZM141.402 74.8408V68.1529H142.676V74.8408H141.402ZM143.711 74.8408V68.1529H145.94C146.577 68.1529 147.055 68.3121 147.373 68.6305C147.692 68.8959 147.824 69.3206 147.771 69.9045C147.771 70.3291 147.718 70.6742 147.612 70.9396C147.453 71.205 147.214 71.3377 146.895 71.3377C147.479 71.4969 147.771 72.0011 147.771 72.8503C147.771 72.9034 147.771 72.93 147.771 72.93L147.851 73.8057C147.851 74.0711 147.877 74.2834 147.93 74.4427C147.983 74.5488 148.063 74.6815 148.169 74.8408H146.736C146.683 74.6815 146.656 74.5488 146.656 74.4427C146.603 74.2834 146.577 74.0711 146.577 73.8057V73.0892V72.93C146.577 72.5054 146.497 72.24 146.338 72.1338C146.179 71.9746 145.834 71.8949 145.303 71.8949H144.905V74.8408H143.711ZM144.905 71.0191H145.621C145.993 71.0191 146.232 70.9396 146.338 70.7804C146.497 70.6211 146.577 70.3557 146.577 69.9842C146.577 69.6657 146.497 69.4534 146.338 69.3472C146.179 69.188 145.913 69.1083 145.542 69.1083H144.905V71.0191ZM149.762 74.8408V69.3472H148.328V68.2324H152.389V69.3472H150.956V74.8408H149.762ZM153.026 68.2324H154.3V72.6911C154.3 73.2219 154.353 73.567 154.459 73.7262C154.618 73.8854 154.857 73.9651 155.176 73.9651C155.494 73.9651 155.706 73.8854 155.813 73.7262C155.919 73.5139 155.972 73.1688 155.972 72.6911V68.2324H157.166V72.7708C157.166 73.2485 157.139 73.567 157.086 73.7262C157.033 73.9385 156.954 74.1242 156.848 74.2835C156.688 74.5489 156.45 74.7346 156.131 74.8408C155.866 74.9469 155.521 75 155.096 75C154.353 75 153.822 74.8408 153.504 74.5224C153.185 74.2039 153.026 73.6201 153.026 72.7708V68.2324ZM158.281 74.8408V68.2324H161.704V69.3472H159.555V70.8599H161.545V71.8949H159.555V73.7262H161.784V74.8408H158.281ZM173.249 74.8408L171.736 68.2324H173.09L174.045 73.567L174.921 68.2324H176.274L174.841 74.8408H173.249ZM176.513 74.8408L178.026 68.2324H179.698L181.211 74.8408H179.857L179.539 73.1689H178.106L177.787 74.8408H176.513ZM178.265 72.2133H179.3L178.822 69.4267L178.265 72.2133ZM181.768 74.9205V68.2324H183.042V73.7262H185.271V74.9205H181.768ZM185.669 68.2324H186.943V72.6911C186.943 73.2219 186.996 73.567 187.102 73.7262C187.262 73.9385 187.5 74.0446 187.819 74.0446C188.137 74.0446 188.35 73.9385 188.456 73.7262C188.562 73.567 188.615 73.2219 188.615 72.6911V68.2324H189.809V72.8503C189.809 73.2749 189.783 73.5934 189.73 73.8057C189.677 74.018 189.597 74.2039 189.491 74.3632C189.332 74.5755 189.093 74.7346 188.774 74.8408C188.509 74.9469 188.164 75 187.739 75C186.996 75 186.465 74.8408 186.147 74.5224C185.828 74.2039 185.669 73.6465 185.669 72.8503V68.2324ZM190.924 74.8408V68.2324H194.348V69.3472H192.198V70.8599H194.188V71.8949H192.198V73.7262H194.427V74.8408H190.924ZM165.446 71.5765C165.446 71.205 165.552 70.8864 165.765 70.621C166.03 70.4087 166.349 70.3026 166.72 70.3026C167.039 70.3026 167.331 70.4353 167.596 70.7007C167.861 70.913 167.994 71.205 167.994 71.5765C167.994 71.895 167.861 72.1868 167.596 72.4522C167.331 72.7176 167.039 72.8503 166.72 72.8503C166.349 72.8503 166.03 72.7176 165.765 72.4522C165.552 72.1868 165.446 71.895 165.446 71.5765ZM198.169 71.5765C198.169 71.205 198.302 70.8864 198.567 70.621C198.833 70.4087 199.125 70.3026 199.443 70.3026C199.815 70.3026 200.133 70.4353 200.399 70.7007C200.611 70.913 200.717 71.205 200.717 71.5765C200.717 71.895 200.611 72.1868 200.399 72.4522C200.133 72.7176 199.815 72.8503 199.443 72.8503C199.125 72.8503 198.833 72.7176 198.567 72.4522C198.302 72.1868 198.169 71.895 198.169 71.5765ZM205.892 74.8408L204.379 68.2324H205.733L206.688 73.4873L207.564 68.2324H208.838L207.485 74.8408H205.892ZM209.634 74.8408V68.2324H210.908V74.8408H209.634ZM211.864 72.5319H213.058V72.93C213.058 73.3546 213.111 73.62 213.217 73.7262C213.323 73.8854 213.509 73.9651 213.774 73.9651C214.04 73.9651 214.226 73.9118 214.332 73.8057C214.491 73.6465 214.57 73.4343 214.57 73.1689C214.57 73.0097 214.517 72.8504 214.411 72.6911C214.305 72.5319 214.093 72.3461 213.774 72.1338L213.137 71.7357C212.607 71.3111 212.262 70.9927 212.102 70.7804C211.996 70.515 211.943 70.1963 211.943 69.8248C211.943 69.294 212.102 68.8695 212.421 68.551C212.739 68.2326 213.19 68.0732 213.774 68.0732C214.411 68.0732 214.889 68.2326 215.207 68.551C215.526 68.8695 215.685 69.3472 215.685 69.9842C215.685 70.0373 215.685 70.0903 215.685 70.1434C215.685 70.1965 215.685 70.2229 215.685 70.2229H214.491V70.0637C214.491 69.6921 214.438 69.4267 214.332 69.2675C214.226 69.1083 214.04 69.0286 213.774 69.0286C213.562 69.0286 213.403 69.1083 213.297 69.2675C213.19 69.3737 213.137 69.533 213.137 69.7453C213.137 70.0107 213.376 70.3025 213.854 70.621L214.57 71.0988C215.048 71.4172 215.367 71.7357 215.526 72.0541C215.685 72.3195 215.765 72.6646 215.765 73.0892C215.765 73.7262 215.606 74.2039 215.287 74.5224C214.916 74.8408 214.411 75 213.774 75C213.137 75 212.66 74.8142 212.341 74.4427C212.023 74.1242 211.864 73.62 211.864 72.93C211.864 72.8239 211.864 72.6912 211.864 72.5319ZM216.8 74.8408V68.2324H217.994V74.8408H216.8ZM219.029 71.5765C219.029 70.8334 219.082 70.276 219.188 69.9045C219.241 69.4799 219.321 69.1614 219.427 68.9491C219.64 68.6306 219.878 68.4183 220.144 68.3121C220.409 68.1529 220.754 68.0732 221.179 68.0732C221.603 68.0732 221.948 68.1529 222.214 68.3121C222.479 68.4183 222.718 68.6306 222.93 68.9491C223.09 69.1614 223.196 69.4799 223.249 69.9045C223.302 70.276 223.328 70.8334 223.328 71.5765C223.328 72.2666 223.302 72.8238 223.249 73.2484C223.196 73.673 223.09 73.9915 222.93 74.2038C222.718 74.4692 222.479 74.6815 222.214 74.8408C221.948 74.9469 221.603 75 221.179 75C220.754 75 220.409 74.9469 220.144 74.8408C219.878 74.6815 219.64 74.4692 219.427 74.2038C219.321 73.9915 219.241 73.673 219.188 73.2484C219.082 72.8238 219.029 72.2666 219.029 71.5765ZM220.303 71.5765C220.303 72.6381 220.383 73.3016 220.542 73.567C220.648 73.8855 220.86 74.0446 221.179 74.0446C221.55 74.0446 221.789 73.9119 221.895 73.6465C222.002 73.328 222.055 72.6381 222.055 71.5765C222.055 70.4619 222.002 69.7718 221.895 69.5064C221.789 69.1879 221.55 69.0286 221.179 69.0286C220.86 69.0286 220.621 69.1879 220.462 69.5064C220.356 69.7718 220.303 70.4619 220.303 71.5765ZM224.364 74.8408V68.2324H225.637L227.309 72.8503V68.2324H228.424V74.8408H227.23L225.478 70.2229V74.8408H224.364Z" fill="white"/>
</svg>
