<svg width="315" height="95" viewBox="0 0 315 95" fill="none" xmlns="http://www.w3.org/2000/svg">
<path fill-rule="evenodd" clip-rule="evenodd" d="M6.1001 47.8003H0.800049V27.9004H8L10.5 37.8003C10.5667 37.9336 10.6334 38.267 10.7001 38.8003C10.8334 39.267 11.0001 39.9336 11.2001 40.8003C11.2667 40.1336 11.3667 39.5336 11.5 39.0002C11.5667 38.4669 11.6334 38.1004 11.7001 37.9004L14.4 27.9004H21.5V47.8003H16.2001V38.0002C16.2001 37.4002 16.2334 36.8336 16.3 36.3003C16.3 35.7003 16.3 35.1002 16.3 34.5002C16.1 35.5669 15.8333 36.7004 15.5 37.9004V38.1003L13.2001 47.8003H9.1001L6.80005 38.3003C6.73338 37.8336 6.63333 37.3336 6.5 36.8003C6.36667 36.2003 6.23343 35.4336 6.1001 34.5002C6.1001 35.3669 6.1001 36.1002 6.1001 36.7002C6.1001 37.3002 6.1001 37.8002 6.1001 38.2002V47.8003ZM170.9 82.7002V53.5002H182.1C184.633 53.5002 186.633 53.6669 188.1 54.0002C189.5 54.2669 190.7 54.7669 191.7 55.5002C192.967 56.3669 193.9 57.467 194.5 58.8003C195.167 60.2003 195.5 61.8003 195.5 63.6003C195.5 66.867 194.6 69.367 192.8 71.1003C190.933 72.8337 188.3 73.7002 184.9 73.7002H179.7V82.7002H170.9ZM179.7 66.6003H182.5C184.3 66.6003 185.533 66.3671 186.2 65.9004C186.8 65.5004 187.1 64.7337 187.1 63.6003C187.1 62.467 186.8 61.7003 186.2 61.3003C185.6 60.8336 184.367 60.6003 182.5 60.6003H179.7V66.6003ZM193.2 82.7002L202.8 53.5002H211.7L221.4 82.7002H212.6L211.6 78.8003H202.9L201.8 82.7002H193.2ZM204.6 72.7002H210.1L207.3 62.6003L204.6 72.7002ZM227.4 82.7002V61.2002H219.5V53.5002H244.1V61.2002H236.2V82.7002H227.4ZM246 82.7002V53.5002H254.8V63.4004H262.9V53.5002H271.7V82.7002H262.9V71.4004H254.8V82.7002H246ZM283.1 82.7002V71.9004L273 53.5002H282.8L287.5 63.5002L292.2 53.5002H301.7L291.9 71.9004V82.7002H283.1ZM0 82.7002V53.5002H8.80005V63.4004H17V53.5002H25.8V82.7002H17V71.4004H8.80005V82.7002H0ZM29.8 68.1003C29.8 63.367 31.0668 59.6337 33.6001 56.9004C36.1334 54.1671 39.6 52.8003 44 52.8003C48.4 52.8003 51.8667 54.1671 54.4 56.9004C56.9334 59.6337 58.2001 63.367 58.2001 68.1003C58.2001 72.8337 56.9334 76.6004 54.4 79.4004C51.8667 82.1337 48.4 83.5002 44 83.5002C39.6 83.5002 36.1334 82.1337 33.6001 79.4004C31.0668 76.6004 29.8 72.8337 29.8 68.1003ZM38.7001 68.1003C38.7001 70.9003 39.1333 72.9335 40 74.2002C40.8667 75.5335 42.2 76.2002 44 76.2002C45.8667 76.2002 47.2334 75.5335 48.1001 74.2002C48.9668 72.9335 49.4 70.9003 49.4 68.1003C49.4 65.367 48.9668 63.3336 48.1001 62.0002C47.2334 60.7336 45.8667 60.1003 44 60.1003C42.2 60.1003 40.8667 60.7336 40 62.0002C39.1333 63.3336 38.7001 65.367 38.7001 68.1003ZM70.2001 82.7002H62.3V53.5002H73L76.8 68.1003C76.8 68.3003 76.9001 68.7337 77.1001 69.4004C77.2334 70.1337 77.4334 71.1337 77.7001 72.4004C77.8334 71.4004 78.0001 70.5336 78.2001 69.8003C78.3334 69.067 78.4668 68.5003 78.6001 68.1003L82.4 53.5002H93.1001V82.7002H85.2001L85.3 68.3003C85.2334 67.4336 85.2334 66.6003 85.3 65.8003C85.3 65.0003 85.3 64.1335 85.3 63.2002C84.9667 64.7335 84.6001 66.4002 84.2001 68.2002V68.4004L80.8 82.7002H74.6001L71.2001 68.7002C71.0667 68.1002 70.9001 67.4003 70.7001 66.6003C70.5667 65.7337 70.3668 64.6002 70.1001 63.2002C70.1668 64.4669 70.2001 65.5669 70.2001 66.5002C70.2001 67.3669 70.2001 68.067 70.2001 68.6003V82.7002ZM98.3 82.7002V53.6003H120.2V60.5002H107.1V64.4004H118.2V71.1003H107.1V75.6003H120.7V82.7002H98.3ZM25.2001 47.9004V27.9004H31.3V47.9004H25.2001ZM33.9 41.6003H39.7001C39.8334 42.3337 40.1 42.8669 40.5 43.2002C40.9 43.5335 41.5334 43.7002 42.4 43.7002C43.0667 43.7002 43.6 43.567 44 43.3003C44.4 43.0336 44.6001 42.6669 44.6001 42.2002C44.6001 41.4669 43.7668 40.9002 42.1001 40.5002C41.7668 40.3669 41.5334 40.3003 41.4 40.3003C40 39.9003 38.9001 39.5335 38.1001 39.2002C37.3001 38.9335 36.7334 38.6336 36.4 38.3003C35.6667 37.767 35.1334 37.1337 34.8 36.4004C34.4 35.6004 34.2001 34.7002 34.2001 33.7002C34.2001 31.7669 34.9 30.2337 36.3 29.1003C37.7001 27.967 39.6 27.4004 42 27.4004C44.3333 27.4004 46.1667 27.9336 47.5 29.0002C48.9 30.0669 49.6667 31.6003 49.8 33.6003H44.2001C44.1334 33.067 43.9 32.6336 43.5 32.3003C43.1 32.0336 42.5667 31.9004 41.9 31.9004C41.2334 31.9004 40.7667 32.0002 40.5 32.2002C40.1667 32.4669 40 32.8336 40 33.3003C40 33.967 40.8 34.5004 42.4 34.9004C42.5334 34.9671 42.6334 35.0002 42.7001 35.0002C42.9667 35.0669 43.3334 35.167 43.8 35.3003C45.9334 35.9003 47.3333 36.4337 48 36.9004C48.8 37.5004 49.4 38.1671 49.8 38.9004C50.2001 39.6337 50.4 40.5337 50.4 41.6003C50.4 43.8003 49.6667 45.467 48.2001 46.6003C46.8001 47.8003 44.7668 48.4004 42.1001 48.4004C39.7001 48.4004 37.7667 47.8003 36.3 46.6003C34.9 45.467 34.1 43.8003 33.9 41.6003ZM52.6001 41.6003H58.4C58.5334 42.3337 58.8001 42.8669 59.2001 43.2002C59.6667 43.5335 60.3001 43.7002 61.1001 43.7002C61.7668 43.7002 62.3001 43.567 62.7001 43.3003C63.1001 43.0336 63.3 42.6669 63.3 42.2002C63.3 41.4669 62.4667 40.9002 60.8 40.5002C60.4667 40.3669 60.2334 40.3003 60.1001 40.3003C58.7001 39.9003 57.6 39.5335 56.8 39.2002C56 38.9335 55.4334 38.6336 55.1001 38.3003C54.3668 37.767 53.8333 37.1337 53.5 36.4004C53.1 35.6004 52.9 34.7002 52.9 33.7002C52.9 31.7669 53.6 30.2337 55 29.1003C56.4 27.967 58.3001 27.4004 60.7001 27.4004C63.0334 27.4004 64.9 27.9336 66.3 29.0002C67.6334 30.0669 68.4001 31.6003 68.6001 33.6003H62.9C62.8334 33.067 62.6001 32.6336 62.2001 32.3003C61.8001 32.0336 61.2668 31.9004 60.6001 31.9004C59.9334 31.9004 59.4667 32.0002 59.2001 32.2002C58.8667 32.4669 58.7001 32.8336 58.7001 33.3003C58.7001 33.967 59.5001 34.5004 61.1001 34.9004C61.2334 34.9671 61.3334 35.0002 61.4 35.0002C61.6667 35.0669 62.0333 35.167 62.5 35.3003C64.6333 35.9003 66.0334 36.4337 66.7001 36.9004C67.5001 37.5004 68.1 38.1671 68.5 38.9004C68.9 39.6337 69.1001 40.5337 69.1001 41.6003C69.1001 43.8003 68.3667 45.467 66.9 46.6003C65.5 47.8003 63.4667 48.4004 60.8 48.4004C58.4 48.4004 56.4667 47.8003 55 46.6003C53.6 45.467 52.8001 43.8003 52.6001 41.6003ZM71.8 47.9004V27.9004H77.8V47.9004H71.8ZM80.7001 37.9004C80.7001 34.6337 81.5334 32.0669 83.2001 30.2002C84.9334 28.3335 87.2667 27.4004 90.2001 27.4004C93.1334 27.4004 95.4667 28.3335 97.2001 30.2002C98.9334 32.0669 99.8 34.6337 99.8 37.9004C99.8 41.1671 98.9334 43.7337 97.2001 45.6003C95.4667 47.467 93.1334 48.4004 90.2001 48.4004C87.2667 48.4004 84.9334 47.467 83.2001 45.6003C81.5334 43.7337 80.7001 41.1671 80.7001 37.9004ZM86.6001 37.9004C86.6001 39.7671 86.9 41.167 87.5 42.1003C88.1 42.967 89.0001 43.4004 90.2001 43.4004C91.4667 43.4004 92.3667 42.967 92.9 42.1003C93.5 41.2337 93.8 39.8337 93.8 37.9004C93.8 35.9671 93.5 34.5669 92.9 33.7002C92.3667 32.8335 91.4667 32.4004 90.2001 32.4004C89.0001 32.4004 88.1 32.8335 87.5 33.7002C86.9 34.6335 86.6001 36.0337 86.6001 37.9004ZM102.5 47.9004V27.9004H108.1L113.2 37.2002C113.4 37.4669 113.567 37.8336 113.7 38.3003C113.9 38.767 114.1 39.3336 114.3 40.0002C114.233 39.6669 114.2 39.3004 114.2 38.9004C114.2 38.4337 114.2 37.9003 114.2 37.3003V27.9004H119.8V47.9004H114.2L109 38.6003C108.867 38.3337 108.7 37.9669 108.5 37.5002C108.3 36.9669 108.1 36.4003 107.9 35.8003C107.967 36.1336 108 36.5004 108 36.9004C108.067 37.3004 108.1 37.8336 108.1 38.5002V47.9004H102.5Z" fill="#003D41"/>
<path fill-rule="evenodd" clip-rule="evenodd" d="M314.099 57C314.099 57.8667 313.899 58.6668 313.499 59.4001C313.032 60.2001 312.433 60.8334 311.699 61.3C310.899 61.7 310.066 61.9001 309.199 61.9001C308.266 61.9001 307.433 61.6666 306.699 61.2C305.899 60.7333 305.299 60.1335 304.899 59.4001C304.433 58.6668 304.199 57.8667 304.199 57C304.199 56.0667 304.433 55.2333 304.899 54.5C305.366 53.7667 305.966 53.1666 306.699 52.7C307.499 52.2333 308.333 52 309.199 52C310.066 52 310.899 52.2333 311.699 52.7C312.433 53.1666 313.032 53.7667 313.499 54.5C313.899 55.2333 314.099 56.0667 314.099 57ZM313.499 57C313.499 56.2 313.299 55.4667 312.899 54.8C312.566 54.1334 312.033 53.6334 311.299 53.3C310.699 52.9 309.999 52.7 309.199 52.7C308.399 52.7 307.666 52.9 306.999 53.3C306.332 53.6334 305.832 54.1334 305.499 54.8C305.099 55.4667 304.899 56.2 304.899 57C304.899 57.7333 305.099 58.4334 305.499 59.1001C305.899 59.7668 306.399 60.3 306.999 60.7C307.666 61.1 308.399 61.3 309.199 61.3C309.933 61.3 310.633 61.1 311.299 60.7C312.033 60.3 312.566 59.7668 312.899 59.1001C313.299 58.4334 313.499 57.7333 313.499 57ZM311.599 59.8H310.599L309.199 57.5H308.099V59.8H307.199V54.1001H309.299C309.966 54.1001 310.466 54.2668 310.799 54.6001C311.133 54.8668 311.299 55.2667 311.299 55.8C311.299 56.2667 311.199 56.6335 310.999 56.9001C310.732 57.1668 310.399 57.3335 309.999 57.4001L311.599 59.8ZM310.599 55.8C310.599 55.4667 310.466 55.2334 310.199 55.1001C309.999 54.9001 309.733 54.8 309.399 54.8H308.199V56.9001H309.399C309.799 56.9001 310.099 56.8001 310.299 56.6001C310.499 56.4001 310.599 56.1334 310.599 55.8Z" fill="#023535"/>
<path fill-rule="evenodd" clip-rule="evenodd" d="M131.901 65.4001C132.834 64.2001 134.001 63.7333 135.401 64C133.301 65.2 133.901 66.3 135.901 67C139.601 68.3 148.301 68.6 153.401 67.5C154.901 67.1 158.9 66.1 156.5 64C157.5 64 158.201 64.2001 158.901 64.8C159.201 62.3 158.801 60.1001 157.601 58.1001C157.101 63.7001 153.501 66.0001 148.301 66.6001C148.901 63.9001 150.501 61.4001 153.201 59.1001C150.601 60.1001 148.901 62.1001 147.401 64.4001C147.601 60.0001 150.101 56.9 155.901 55.5C151.701 49.6 143.001 49.2001 137.201 52.8C139.901 48.1 144 45.4 150.5 45.7C174.6 48.2 171.6 86.5 147 86.5C127.8 86.5 114.901 63.5 133.801 52.8C131.801 55.9 130.201 62.6001 131.901 65.4001ZM134.701 59.8C134.701 58.5 135.801 57.4001 137.101 57.4001C138.501 57.4001 139.5 58.5 139.5 59.8C139.5 60.3 139.401 60.7999 139.101 61.2L142.301 67.2L138.401 66.6001L136.901 62.2C135.701 62.1 134.701 61 134.701 59.8ZM141.301 59.1001C141.301 59.1001 146.801 60.5 146.601 66.5C142.301 65.8 143.101 61.4001 141.301 59.1001ZM155.701 69.9001C155.101 72.2001 152.7 75.2001 150.5 77.1001C155.3 74.1001 156.6 70.4 156.5 68.8C152.9 70.7001 145.701 70.3 145.701 70.3C148.601 70.9 152.401 71.0001 155.701 69.9001ZM150.5 37.9001C143.3 38.8001 138.001 42.9 134.701 50.8C131.301 51.9 128.101 54.9001 125.801 58.1001C130.601 38.9001 146.501 24.6 176.901 23.3C176.901 34.6 167.5 36.6001 150.5 37.9001ZM169 28.4001C159.8 31.9001 154 32.4001 154 32.4001C160.2 34.1001 169 28.4001 169 28.4001ZM141.201 33.1001C130.501 21.4001 144.701 11.1 146.401 0C162.701 20.8 141.201 33.1001 141.201 33.1001ZM145.801 8.90015C146.401 20.4001 142.301 21.3001 143.301 24.9001C144.001 24.7001 147.901 16.3001 145.801 8.90015Z" fill="#22B2AB"/>
<path fill-rule="evenodd" clip-rule="evenodd" d="M172.901 94L171.102 85.6001H172.702L174.001 92.3L175.102 85.6001H176.702L175.001 94H172.901ZM177.602 94V85.6001H179.202V94H177.602ZM180.501 94V85.6001H183.302C184.102 85.6001 184.702 85.8 185.102 86.2C185.502 86.5333 185.668 87.0667 185.602 87.8C185.602 88.3334 185.535 88.7668 185.401 89.1001C185.201 89.4334 184.901 89.6001 184.501 89.6001C185.235 89.8001 185.602 90.4333 185.602 91.5C185.602 91.5667 185.602 91.6001 185.602 91.6001L185.702 92.7C185.702 93.0333 185.735 93.3 185.802 93.5C185.868 93.6333 185.968 93.8 186.102 94H184.302C184.235 93.8 184.202 93.6333 184.202 93.5C184.135 93.3 184.102 93.0333 184.102 92.7V91.8V91.6001C184.102 91.0668 184.002 90.7334 183.802 90.6001C183.602 90.4001 183.168 90.3 182.501 90.3H182.001V94H180.501ZM182.001 89.2H182.901C183.368 89.2 183.668 89.1001 183.802 88.9001C184.002 88.7001 184.102 88.3668 184.102 87.9001C184.102 87.5001 184.002 87.2334 183.802 87.1001C183.602 86.9001 183.268 86.8 182.802 86.8H182.001V89.2ZM188.102 94V87.1001H186.302V85.7H191.401V87.1001H189.602V94H188.102ZM192.202 85.7H193.802V91.3C193.802 91.9667 193.868 92.4001 194.001 92.6001C194.201 92.8001 194.501 92.9001 194.901 92.9001C195.301 92.9001 195.568 92.8001 195.702 92.6001C195.835 92.3334 195.901 91.9 195.901 91.3V85.7H197.401V91.4001C197.401 92.0001 197.368 92.4001 197.302 92.6001C197.235 92.8668 197.135 93.1 197.001 93.3C196.801 93.6334 196.502 93.8667 196.102 94C195.768 94.1333 195.335 94.2 194.802 94.2C193.868 94.2 193.202 94.0001 192.802 93.6001C192.402 93.2001 192.202 92.4668 192.202 91.4001V85.7ZM198.802 94V85.7H203.102V87.1001H200.401V89H202.901V90.3H200.401V92.6001H203.202V94H198.802ZM217.602 94L215.702 85.7H217.401L218.602 92.4001L219.702 85.7H221.401L219.602 94H217.602ZM221.702 94L223.602 85.7H225.702L227.602 94H225.901L225.501 91.9001H223.702L223.302 94H221.702ZM223.901 90.7H225.202L224.602 87.2L223.901 90.7ZM228.302 94.1001V85.7H229.901V92.6001H232.702V94.1001H228.302ZM233.202 85.7H234.802V91.3C234.802 91.9667 234.868 92.4001 235.001 92.6001C235.201 92.8668 235.501 93 235.901 93C236.301 93 236.568 92.8668 236.702 92.6001C236.835 92.4001 236.901 91.9667 236.901 91.3V85.7H238.401V91.5C238.401 92.0333 238.368 92.4333 238.302 92.7C238.235 92.9666 238.135 93.2001 238.001 93.4001C237.801 93.6668 237.502 93.8667 237.102 94C236.768 94.1333 236.335 94.2 235.802 94.2C234.868 94.2 234.202 94.0001 233.802 93.6001C233.402 93.2001 233.202 92.5 233.202 91.5V85.7ZM239.802 94V85.7H244.102V87.1001H241.401V89H243.901V90.3H241.401V92.6001H244.202V94H239.802ZM207.802 89.9001C207.802 89.4335 207.935 89.0333 208.202 88.7C208.535 88.4333 208.935 88.3 209.401 88.3C209.801 88.3 210.168 88.4667 210.501 88.8C210.835 89.0667 211.001 89.4335 211.001 89.9001C211.001 90.3001 210.835 90.6667 210.501 91C210.168 91.3333 209.801 91.5 209.401 91.5C208.935 91.5 208.535 91.3333 208.202 91C207.935 90.6667 207.802 90.3001 207.802 89.9001ZM248.901 89.9001C248.901 89.4335 249.068 89.0333 249.401 88.7C249.735 88.4333 250.101 88.3 250.501 88.3C250.968 88.3 251.368 88.4667 251.702 88.8C251.968 89.0667 252.102 89.4335 252.102 89.9001C252.102 90.3001 251.968 90.6667 251.702 91C251.368 91.3333 250.968 91.5 250.501 91.5C250.101 91.5 249.735 91.3333 249.401 91C249.068 90.6667 248.901 90.3001 248.901 89.9001ZM258.602 94L256.702 85.7H258.401L259.602 92.3L260.702 85.7H262.302L260.602 94H258.602ZM263.302 94V85.7H264.901V94H263.302ZM266.102 91.1001H267.602V91.6001C267.602 92.1334 267.668 92.4668 267.802 92.6001C267.935 92.8001 268.168 92.9001 268.501 92.9001C268.835 92.9001 269.068 92.8333 269.202 92.7C269.402 92.5 269.501 92.2335 269.501 91.9001C269.501 91.7001 269.435 91.5 269.302 91.3C269.168 91.1 268.901 90.8668 268.501 90.6001L267.702 90.1001C267.035 89.5668 266.601 89.1668 266.401 88.9001C266.268 88.5668 266.202 88.1666 266.202 87.7C266.202 87.0333 266.402 86.5001 266.802 86.1001C267.202 85.7001 267.768 85.5 268.501 85.5C269.301 85.5 269.902 85.7001 270.302 86.1001C270.702 86.5001 270.901 87.1001 270.901 87.9001C270.901 87.9668 270.901 88.0334 270.901 88.1001C270.901 88.1668 270.901 88.2 270.901 88.2H269.401V88C269.401 87.5333 269.335 87.2 269.202 87C269.068 86.8 268.835 86.7 268.501 86.7C268.235 86.7 268.035 86.8 267.901 87C267.768 87.1333 267.702 87.3334 267.702 87.6001C267.702 87.9334 268.002 88.3 268.602 88.7L269.501 89.3C270.101 89.7 270.502 90.1 270.702 90.5C270.902 90.8333 271.001 91.2667 271.001 91.8C271.001 92.6 270.801 93.2001 270.401 93.6001C269.935 94.0001 269.301 94.2 268.501 94.2C267.701 94.2 267.102 93.9667 266.702 93.5C266.302 93.1 266.102 92.4668 266.102 91.6001C266.102 91.4668 266.102 91.3001 266.102 91.1001ZM272.302 94V85.7H273.802V94H272.302ZM275.102 89.9001C275.102 88.9668 275.168 88.2667 275.302 87.8C275.368 87.2667 275.468 86.8668 275.602 86.6001C275.868 86.2001 276.168 85.9334 276.501 85.8C276.835 85.6 277.268 85.5 277.802 85.5C278.335 85.5 278.768 85.6 279.102 85.8C279.435 85.9334 279.735 86.2001 280.001 86.6001C280.201 86.8668 280.335 87.2667 280.401 87.8C280.468 88.2667 280.501 88.9668 280.501 89.9001C280.501 90.7668 280.468 91.4667 280.401 92C280.335 92.5333 280.201 92.9333 280.001 93.2C279.735 93.5333 279.435 93.8 279.102 94C278.768 94.1333 278.335 94.2 277.802 94.2C277.268 94.2 276.835 94.1333 276.501 94C276.168 93.8 275.868 93.5333 275.602 93.2C275.468 92.9333 275.368 92.5333 275.302 92C275.168 91.4667 275.102 90.7668 275.102 89.9001ZM276.702 89.9001C276.702 91.2335 276.801 92.0668 277.001 92.4001C277.135 92.8001 277.402 93 277.802 93C278.268 93 278.568 92.8333 278.702 92.5C278.835 92.1 278.901 91.2335 278.901 89.9001C278.901 88.5001 278.835 87.6334 278.702 87.3C278.568 86.9 278.268 86.7 277.802 86.7C277.402 86.7 277.101 86.9 276.901 87.3C276.768 87.6334 276.702 88.5001 276.702 89.9001ZM281.802 94V85.7H283.401L285.501 91.5V85.7H286.901V94H285.401L283.202 88.2V94H281.802Z" fill="#003D41"/>
</svg>
