<svg width="128" height="128" viewBox="0 0 128 128" fill="none" xmlns="http://www.w3.org/2000/svg">
<path d="M97.93 60.0499C99.02 57.0999 99.73 50.5999 98.49 47.2399C98.0458 46.107 97.2988 45.118 96.3306 44.3808C95.3624 43.6437 94.2103 43.1867 93 43.0599C92.0788 42.9822 91.153 43.1405 90.31 43.5199C91.8504 40.822 92.9381 37.8898 93.53 34.8399C95 26.9999 91.13 16.6699 79.7 16.1099C70.7 15.6699 65.04 24.4799 65.04 24.4799C65.04 24.4799 59.43 15.6699 50.39 16.1099C39 16.6699 35.05 26.9999 36.53 34.8399C36.8244 36.3712 37.2527 37.8736 37.81 39.3299C36.28 40.4699 36.22 42.3799 36.29 45.1899C36.29 45.6299 36.29 46.0899 36.34 46.5599C36.46 49.6399 36.6 53.1299 35.07 56.2799C34.1589 57.9693 33.1575 59.6083 32.07 61.1899C29.52 65.1299 26.02 70.5299 23.91 76.3899C22.8021 79.7619 22.2977 83.3028 22.42 86.8499C22.503 88.3415 22.3683 89.8372 22.02 91.2899C20.88 94.4399 19.61 95.2899 19.61 95.2899L17.61 96.4799L19.82 97.0999C19.92 97.0999 30.4 100.1 37.33 104.41C42.978 108.104 48.0809 112.571 52.49 117.68L54.03 119.62L54.25 117.21C54.25 117.21 55.37 113.42 70.75 108.36C80.81 105.06 85.03 98.2499 87.3 94.5999C87.7277 93.8078 88.248 93.0693 88.85 92.3999C91.1 90.6399 96.65 83.3999 98.36 79.0399C100.55 73.4599 101.43 68.7299 100.83 65.7199C100.547 63.5518 99.5223 61.5485 97.93 60.0499ZM96.55 78.3599C95.01 82.2699 89.67 89.3599 87.68 90.8699C86.8773 91.6683 86.2027 92.5858 85.68 93.5899C83.39 97.2699 79.57 103.43 70.21 106.51C58.73 110.29 54.62 113.51 53.15 115.35C48.8361 110.518 43.8957 106.283 38.46 102.76C32.86 99.2799 25.28 96.7599 22.02 95.6999C22.832 94.5668 23.4723 93.3201 23.92 91.9999C24.3636 90.3418 24.5391 88.6235 24.44 86.9099C24.3248 83.5885 24.7884 80.2724 25.81 77.1099C27.81 71.4599 31.13 66.3899 33.81 62.3199C34.9314 60.6647 35.9661 58.9524 36.91 57.1899C38.66 53.5899 38.51 49.8299 38.38 46.5199C38.38 46.0599 38.38 45.6099 38.33 45.1699C38.23 41.1699 38.4 40.6399 41.45 40.2599C44.68 39.8499 47.75 43.0799 49.01 46.3199C50.27 49.5599 52.01 54.3899 52.11 58.3999C52.0104 60.3982 51.6369 62.3733 51 64.2699C50.31 66.8799 49.65 69.3399 50.25 71.1399C52.38 77.4999 51.77 80.1399 51.74 80.2899L51.46 81.2399L53.38 81.8099L53.66 80.8099C53.76 80.4999 54.51 77.5399 52.15 70.4599C51.74 69.2299 52.35 66.9599 52.94 64.7499C53.6117 62.6488 53.9886 60.4647 54.06 58.2599C54.0649 58.1733 54.0649 58.0865 54.06 57.9999C59.88 61.9999 65.06 64.7399 65.06 64.7399C70.0999 61.9677 74.9566 58.8747 79.6 55.4799C81.7899 53.8579 83.8132 52.0222 85.64 49.9999C85.2 51.1199 84.79 52.2599 84.39 53.3899C83.3 56.4799 82.17 59.6699 80.39 61.9199C75.72 67.9199 72.67 68.9199 72.66 68.9199L71.66 69.1799L72.19 71.1099L73.19 70.8499C73.33 70.8499 76.8 69.8499 81.97 63.1699C83.97 60.6599 85.1 57.3199 86.24 54.0799C86.9856 51.717 87.9463 49.4274 89.11 47.2399C89.4322 46.5415 89.9603 45.9583 90.6234 45.5686C91.2866 45.179 92.0531 45.0015 92.82 45.0599C93.6475 45.1541 94.4341 45.4706 95.0962 45.9759C95.7582 46.4813 96.271 47.1565 96.58 47.9299C97.58 50.6799 97.02 56.4699 96.09 59.1699C95.8087 59.0967 95.5204 59.0531 95.23 59.0399C91.66 58.9099 90.18 62.0399 89.23 65.0399C87.88 69.4799 84.58 74.9499 80.23 77.1699L79.34 77.6299L80.25 79.4099L81.14 78.9499C86.32 76.2899 89.76 70.1099 91.14 65.6199C92.14 62.1999 93.23 60.9499 95.14 61.0199C97.62 61.1099 98.59 64.6299 98.89 66.1499C99.45 68.7699 98.58 73.2099 96.55 78.3599ZM102.77 23.8699L101.12 24.9999L101.69 25.8199C102.963 27.6593 103.645 29.843 103.645 32.0799C103.645 34.3169 102.963 36.5006 101.69 38.3399L101.12 39.1599L102.77 40.2999L103.34 39.4799C104.845 37.3058 105.652 34.7243 105.652 32.0799C105.652 29.4356 104.845 26.8541 103.34 24.6799L102.77 23.8699ZM110.74 21.4199L110.23 20.5599L108.5 21.5599L109.01 22.4199C110.734 25.3437 111.643 28.6758 111.643 32.0699C111.643 35.464 110.734 38.7962 109.01 41.7199L108.51 42.5799L110.23 43.5799L110.74 42.7199C112.647 39.4874 113.653 35.803 113.653 32.0499C113.653 28.2969 112.647 24.6124 110.74 21.3799V21.4199ZM26.39 40.3099L28 39.1699L27.43 38.3499C26.157 36.5106 25.475 34.3268 25.475 32.0899C25.475 29.853 26.157 27.6693 27.43 25.8299L28 24.9999L26.35 23.8599L25.78 24.6799C24.2747 26.8541 23.4683 29.4356 23.4683 32.0799C23.4683 34.7243 24.2747 37.3058 25.78 39.4799L26.39 40.3099ZM18.93 43.6199L20.65 42.6199L20.15 41.7599C18.4262 38.8362 17.517 35.504 17.517 32.1099C17.517 28.7158 18.4262 25.3837 20.15 22.4599L20.65 21.5999L18.93 20.5999L18.42 21.4599C16.5131 24.6924 15.5073 28.3769 15.5073 32.1299C15.5073 35.883 16.5131 39.5674 18.42 42.7999L18.93 43.6199Z" fill="#023535"/>
</svg>
