<svg width="541" height="733" viewBox="0 0 541 733" fill="none" xmlns="http://www.w3.org/2000/svg">
<path fill-rule="evenodd" clip-rule="evenodd" d="M90.4567 473.216C101.938 458.441 116.289 452.694 133.51 455.977C107.678 470.751 115.059 484.295 139.661 492.913C185.174 508.919 292.192 512.613 354.927 499.069C373.379 494.144 422.582 481.832 393.06 455.977C405.361 455.977 413.972 458.44 422.583 465.827C426.273 435.047 421.353 407.961 406.592 383.336C400.442 452.284 356.158 480.602 292.193 487.99C299.573 454.747 319.255 423.966 352.468 395.649C320.485 407.961 299.573 432.586 281.122 460.904C283.582 406.73 314.334 368.561 385.68 351.324C334.016 278.682 226.998 273.758 155.652 318.082C188.865 260.214 239.298 226.97 319.254 230.664C615.708 261.444 578.805 733 276.201 733C40.0224 733 -118.659 449.821 113.829 318.082C89.2269 356.249 69.5451 438.742 90.4567 473.216ZM124.9 404.266C124.9 388.261 138.431 374.719 154.423 374.719C171.644 374.719 183.944 388.261 183.944 404.266C183.944 410.423 182.715 416.577 179.025 421.502L218.387 495.375L170.413 487.99L151.962 433.814C137.2 432.583 124.9 419.041 124.9 404.266ZM206.086 395.649C206.086 395.649 273.742 412.884 271.282 486.757C218.388 478.139 228.228 423.966 206.086 395.649ZM383.22 528.62C375.84 556.938 346.316 593.874 319.254 617.267C378.299 580.331 394.29 534.775 393.06 515.076C348.777 538.469 260.211 533.544 260.211 533.544C295.883 540.931 342.627 542.164 383.22 528.62ZM319.254 134.632C230.687 145.713 165.493 196.191 124.9 293.457C83.0767 307.001 43.7133 343.938 15.4211 383.336C74.4658 146.943 270.051 -29.1208 644 -45.1266C644 94.0006 528.371 118.626 319.254 134.632ZM546.822 17.6665C433.653 60.759 362.308 66.9151 362.308 66.9151C438.574 87.8457 546.822 17.6665 546.822 17.6665ZM204.856 75.533C73.236 -68.519 247.909 -195.335 268.821 -332C469.326 -75.9075 204.856 75.533 204.856 75.533ZM261.44 -222.42C268.821 -80.8306 218.387 -69.7496 230.688 -25.4259C239.299 -27.8884 287.272 -131.31 261.44 -222.42Z" fill="white" fill-opacity="0.1"/>
</svg>
